<!-- Created with Inkscape (http://www.inkscape.org/) -->
		<svg 
		   xmlns:dc="http://purl.org/dc/elements/1.1/"
		   xmlns:cc="http://creativecommons.org/ns#"
		   xmlns:rdf="http://www.w3.org/1999/02/22-rdf-syntax-ns#"
		   xmlns:svg="http://www.w3.org/2000/svg"
		   xmlns="http://www.w3.org/2000/svg"
		   xmlns:sodipodi="http://sodipodi.sourceforge.net/DTD/sodipodi-0.dtd"
		   xmlns:inkscape="http://www.inkscape.org/namespaces/inkscape"
		   preserveAspectRatio="xMidYMid meet"
		   width="77.512802mm"
		   height="42.663296mm"
		   viewBox="0 0 77.512802 42.663296"
		   version="1.1"
		   id="svg5270"
		   inkscape:version="0.92.4 (5da689c313, 2019-01-14)"
		   sodipodi:docname="gallogo.svg">
		  <defs
			 id="defs5264" />
		  <sodipodi:namedview
			 id="base"
			 pagecolor="#ffffff"
			 bordercolor="#666666"
			 borderopacity="1.0"
			 inkscape:pageopacity="0.0"
			 inkscape:pageshadow="2"
			 inkscape:zoom="6.2840966"
			 inkscape:cx="0"
			 inkscape:cy="0"
			 inkscape:document-units="mm"
			 inkscape:current-layer="layer1"
			 showgrid="false"
			 inkscape:window-width="2741"
			 inkscape:window-height="1586"
			 inkscape:window-x="0"
			 inkscape:window-y="0"
			 inkscape:window-maximized="1"
			 fit-margin-top="0"
			 fit-margin-left="0"
			 fit-margin-right="0"
			 fit-margin-bottom="0" />
		  <metadata
			 id="metadata5267">
			<rdf:RDF>
			  <cc:Work
				 rdf:about="">
				<dc:format>image/svg+xml</dc:format>
				<dc:type
				   rdf:resource="http://purl.org/dc/dcmitype/StillImage" />
				<dc:title></dc:title>
			  </cc:Work>
			</rdf:RDF>
		  </metadata>
		  <g
			 inkscape:label="Layer 1"
			 inkscape:groupmode="layer"
			 id="layer1"
			 transform="translate(-2.49372e-8,-254.33671)">
			<g
			   transform="matrix(0.26458333,0,0,0.26458333,3.4380686,147.57369)"
			   id="g5223">
			  <rect
				 y="0"
				 x="0"
				 height="42.663296"
				 width="77.512802"
				 id="rect4814-4"
				 style="fill:#ffffff;fill-opacity:1;stroke:none;stroke-opacity:1" />
			  <path
				 id="path4724-5"
				 d="m 86.515095,547.20982 c -0.965783,-0.56244 -5.586503,-6.84144 -10.268263,-13.95335 -8.90453,-13.52658 -11.59326,-15.95604 -17.67612,-15.97171 -2.87599,-0.007 -4.46099,1.21847 -12.34433,9.54741 -6.72553,7.10569 -9.48193,9.38811 -10.75,8.90151 -3.00665,-1.15376 -1.87848,-4.6399 6.43903,-19.89714 l 8.14435,-14.93962 -2.35919,-1.55183 c -6.34655,-4.17464 -14.00896,-10.50006 -19.42952,-16.03936 -5.813,-5.94033 -5.93767,-6.17825 -4,-7.63404 3.12589,-2.34851 6.91907,-0.9666 15.83953,5.77056 11.10146,8.38435 15.49256,10.23469 22.73071,9.57835 11.01583,-0.99888 19.92762,-7.22338 28.974763,-20.23762 5.14473,-7.40065 9.078845,-10.48972 13.359275,-10.48972 3.32088,0 3.26432,0.9656 -0.46656,7.96546 -6.309735,11.83829 -22.671368,29.67791 -30.483828,33.2375 -2.15856,0.98351 -2.00577,1.40978 7.61034,21.23194 5.397223,11.12556 10.114513,21.42907 10.482863,22.89669 0.58501,2.33086 0.37139,2.66456 -1.68868,2.638 -1.29713,-0.0167 -3.14859,-0.49059 -4.11437,-1.05303 z"
				 style="fill:#3c3b6e;fill-opacity:1"
				 inkscape:connector-curvature="0" />
			  <path
				 id="path4720-6"
				 d="m 135.05973,528.29336 c -3.41036,0 -8.28906,5.12114 -8.28906,8.70117 0,3.40347 2.39089,7.10949 5.35742,8.30664 2.84093,1.14641 3.10082,1.1495 6.02148,0.0391 1.37997,-0.52466 3.19156,-2.21216 4.02539,-3.75 l 1.51563,-2.79688 0.041,3.25 c 0.0317,2.56999 0.45753,3.25 2.03906,3.25 1.58141,0 2.00891,-0.68021 2.04101,-3.25 l 0.041,-3.25 2.85937,3.3418 c 1.64571,1.92375 3.579,3.19716 4.55469,3 1.50758,-0.30463 1.44964,-0.65373 -0.5293,-3.16407 -1.92954,-2.4477 -2.05926,-3.13618 -0.96874,-5.17382 0.70168,-1.31106 0.97217,-3.49003 0.61132,-4.92774 -0.52929,-2.10889 -1.28032,-2.60381 -4.1289,-2.72656 -1.91452,-0.0825 -4.04297,-0.195 -4.73047,-0.25 -0.71852,-0.0575 -1.50788,1.60114 -1.85742,3.90039 -0.33446,2.2 -0.672,3.01985 -0.75,1.82227 -0.17843,-2.73776 -4.63119,-6.32227 -7.85352,-6.32227 z m -0.25781,3.24805 c 0.59826,-0.0175 1.26083,0.36776 2.44336,1.14257 2.67159,1.7505 3.20104,4.4791 1.49023,7.67579 -1.15713,2.16212 -4.92655,2.57149 -6.76367,0.73437 -1.8419,-1.8419 -1.42711,-6.28588 0.77344,-8.27734 0.92443,-0.8366 1.45838,-1.25785 2.05664,-1.27539 z m 15.04297,0.75195 c 1.4311,0 1.96938,0.53828 1.73828,1.73828 -0.50201,2.60673 -3.8125,2.89664 -3.8125,0.33399 0,-1.43109 0.64313,-2.07227 2.07422,-2.07227 z"
				 style="fill:#b22234;fill-opacity:1"
				 inkscape:connector-curvature="0" />
			  <path
				 id="path4714-3"
				 d="m 166.12804,545.30168 c -9.67558,-3.90458 -4.95697,-19.13271 5.143,-16.59778 1.60264,0.40224 2.5,1.33082 2.5,2.58697 0,1.69939 -0.31509,1.81595 -2.37351,0.87807 -3.62812,-1.65308 -6.62649,0.36476 -6.62649,4.4595 0,3.75796 1.51721,5.67852 4.45,5.63302 3.8234,-0.0593 5.41485,-2.28669 5.74141,-8.0356 0.22864,-4.02516 0.6972,-5.4326 1.80859,-5.4326 0.96136,0 1.61252,1.16705 1.81336,3.25 0.28688,2.97542 0.60371,3.25 3.75,3.25 3.15182,0 3.43664,-0.24863 3.43664,-3 0,-2 0.5,-3 1.5,-3 1.20833,0 1.5,1.55556 1.5,8 0,6.44444 -0.29167,8 -1.5,8 -1.04762,0 -1.5,-1.05556 -1.5,-3.5 0,-3.33333 -0.16667,-3.5 -3.5,-3.5 -3.33333,0 -3.5,0.16667 -3.5,3.5 0,2.78893 -0.39143,3.5 -1.92668,3.5 -1.05967,0 -2.13247,-0.7875 -2.38399,-1.75 -0.38834,-1.486 -0.47483,-1.5036 -0.57333,-0.11663 -0.0638,0.89835 -1.1285,1.90471 -2.366,2.23634 -2.70603,0.72519 -2.69963,0.72562 -5.393,-0.36129 z"
				 style="fill:#b22234;fill-opacity:1"
				 inkscape:connector-curvature="0" />
			  <path
				 id="path4712-9"
				 d="m 116.9806,537.04326 0.29044,-8.25 h 4.4863 c 3.47762,0 4.56208,0.39347 4.82333,1.75 0.26194,1.36016 -0.34761,1.75 -2.73631,1.75 -2.06517,0 -3.07332,0.49205 -3.07332,1.5 0,0.93333 0.94444,1.5 2.5,1.5 1.55556,0 2.5,0.56667 2.5,1.5 0,0.93333 -0.94444,1.5 -2.5,1.5 -2.19048,0 -2.5,0.43333 -2.5,3.5 0,2.85646 -0.37517,3.5 -2.04044,3.5 -1.91251,0 -2.02223,-0.51727 -1.75,-8.25 z"
				 style="fill:#b22234;fill-opacity:1"
				 inkscape:connector-curvature="0" />
			  <path
				 id="path4710-1"
				 d="m 189.9806,537.04326 c 0.23015,-6.53758 0.60179,-8.25 1.79044,-8.25 1.18865,0 1.56029,1.71242 1.79044,8.25 0.27401,7.78328 0.17272,8.25 -1.79044,8.25 -1.96316,0 -2.06445,-0.46672 -1.79044,-8.25 z"
				 style="fill:#b22234;fill-opacity:1"
				 inkscape:connector-curvature="0" />
			  <path
				 id="path4708-5"
				 d="m 194.9806,537.04326 c 0.23015,-6.53758 0.60179,-8.25 1.79044,-8.25 1.1852,0 1.5,1.41676 1.5,6.7508 v 6.75081 l 3.25,-8.1e-4 c 2.22258,-5.5e-4 3.25,0.47339 3.25,1.4992 0,1.13494 -1.22672,1.5 -5.04044,1.5 h -5.04044 z"
				 style="fill:#b22234;fill-opacity:1"
				 inkscape:connector-curvature="0" />
			  <path
				 id="path4706-8"
				 d="m 206.93668,528.23477 -0.33203,6.91797 c -0.18337,3.80526 -0.18758,7.64322 -0.01,8.52929 0.22744,1.13323 1.42174,1.61133 4.02734,1.61133 4.17046,0 7.86946,-2.1639 9.1582,-5.35742 0.72049,-1.78539 0.87494,-1.51681 0.92774,1.60742 0.0518,3.0622 0.42932,3.75 2.0625,3.75 1.58423,0 2.00604,-0.67563 2.02734,-3.25 l 0.0274,-3.25 2.78515,3.35938 c 1.70314,2.0532 3.48115,3.21958 4.57031,3 1.63255,-0.32914 1.59149,-0.6001 -0.48046,-3.22852 -1.85382,-2.35172 -2.05164,-3.20565 -1.09571,-4.73633 2.54143,-4.06948 1.1021,-7.03794 -4.0039,-8.25586 -4.23562,-1.01031 -5.82524,0.13242 -5.86914,4.21875 l -0.0391,3.64258 -1.37304,-3.1543 c -1.40071,-3.21951 -2.28486,-3.70707 -8.71485,-4.78906 z m 4.40039,4.05859 c 4.8606,0 7.19634,5.09468 3.86329,8.42773 -0.86428,0.86429 -2.43928,1.57227 -3.5,1.57227 -1.64762,0 -1.92969,-0.7284 -1.92969,-5 0,-3.87108 0.35418,-5 1.5664,-5 z m 15.50782,0 c 1.4311,0 1.96938,0.53828 1.73828,1.73828 -0.50201,2.60673 -3.8125,2.89664 -3.8125,0.33399 0,-1.43109 0.64313,-2.07227 2.07422,-2.07227 z"
				 style="fill:#b22234;fill-opacity:1"
				 inkscape:connector-curvature="0" />
			  <path
				 id="path4700-2"
				 d="m 234.77104,536.82435 v -8.46891 l 4.75,0.21891 c 3.45826,0.15938 4.75,0.62683 4.75,1.71891 0,0.96136 -1.16705,1.61252 -3.25,1.81336 -4.26323,0.41105 -4.48098,3.18664 -0.25,3.18664 2,0 3,0.5 3,1.5 0,1 -1,1.5 -3,1.5 -2.33333,0 -3,0.44444 -3,2 0,1.61905 0.66667,2 3.5,2 2.44444,0 3.5,0.45238 3.5,1.5 0,1.13333 -1.22222,1.5 -5,1.5 h -5 z"
				 style="fill:#b22234;fill-opacity:1"
				 inkscape:connector-curvature="0" />
			  <path
				 id="path4698-6"
				 d="m 245.77104,536.58085 v -8.71241 l 4.93524,4.86103 4.93524,4.86103 0.31476,-4.39862 c 0.22207,-3.10332 0.75648,-4.39862 1.81476,-4.39862 1.18865,0 1.56029,1.71242 1.79044,8.25 0.15975,4.5375 -0.0498,8.25 -0.46565,8.25 -0.41585,0 -2.90905,-2.12058 -5.54044,-4.71241 l -4.78435,-4.71241 v 4.71241 c 0,3.52214 -0.37887,4.71241 -1.5,4.71241 -1.21855,0 -1.5,-1.63471 -1.5,-8.71241 z"
				 style="fill:#b22234;fill-opacity:1"
				 inkscape:connector-curvature="0" />
			  <path
				 id="path4628-6"
				 d="m 112.77104,523.79326 c 0,-1.32009 9.05556,-1.5 75.5,-1.5 66.44444,0 75.5,0.17991 75.5,1.5 0,1.32009 -9.05556,1.5 -75.5,1.5 -66.44444,0 -75.5,-0.17991 -75.5,-1.5 z"
				 style="fill:#b22234;fill-opacity:1"
				 inkscape:connector-curvature="0" />
			  <path
				 id="path4584-6"
				 d="m 228.62544,509.06632 -2.55925,-5.22693 -0.70885,4.72693 c -0.63181,4.21319 -0.98568,4.72693 -3.25598,4.72693 -2.13356,0 -2.46014,-0.36533 -2.01134,-2.25 0.29469,-1.2375 1.30506,-6.1875 2.24526,-11 0.9402,-4.8125 2.00129,-8.75 2.35798,-8.75 0.35668,0 2.14537,3.03545 3.97485,6.74545 l 3.32633,6.74545 3.20054,-6.34023 c 1.7603,-3.48713 3.60769,-6.31602 4.10531,-6.28642 0.82104,0.0488 4.26443,15.18526 4.41007,19.38575 0.0418,1.20486 -0.699,1.75 -2.37805,1.75 -2.1406,0 -2.52764,-0.58066 -3.16609,-4.75 l -0.72737,-4.75 -2.40005,5.25 c -1.32002,2.8875 -2.72721,5.25 -3.12708,5.25 -0.39987,0 -1.8787,-2.35212 -3.28628,-5.22693 z"
				 style="fill:#3c3b6e;fill-opacity:1"
				 inkscape:connector-curvature="0" />
			  <path
				 id="path4582-8"
				 d="m 125.74332,491.29336 c -0.58631,0 -10.97265,20.42883 -10.97265,21.58203 0,1.18681 5.14701,0.19922 5.63867,-1.08203 0.38776,-1.01048 1.97402,-1.5 4.86133,-1.5 2.88731,0 4.47357,0.48952 4.86133,1.5 0.31658,0.825 1.76374,1.5 3.21484,1.5 1.71326,0 2.4606,-0.4383 2.13281,-1.25 -3.28779,-8.14144 -9.20408,-20.75 -9.73633,-20.75 z m -0.86718,10.00391 c 0.38328,-0.008 1.86175,2.40839 1.8789,3.24609 0.008,0.4125 -0.70794,0.75 -1.59179,0.75 -1.0545,0 -1.39831,-0.54404 -1,-1.58203 0.33385,-0.86998 0.61504,-1.88248 0.62304,-2.25 0.003,-0.11184 0.0351,-0.16286 0.0899,-0.16406 z"
				 style="fill:#3c3b6e;fill-opacity:1"
				 inkscape:connector-curvature="0" />
			  <path
				 id="path4578-3"
				 d="m 136.77067,492.06094 v 10.61523 10.61719 h 5.98437 c 5.19896,0 6.41277,-0.3829 9.25,-2.91797 2.78351,-2.48706 3.26563,-3.59055 3.26563,-7.47656 0,-3.62976 -0.55429,-5.11484 -2.72266,-7.2832 -2.27991,-2.27992 -3.78693,-2.79277 -9.25,-3.14063 z m 8.3789,5.23242 c 4.31075,0 6.57772,5.93827 3.625,9.49609 -0.6861,0.82669 -2.31735,1.50391 -3.625,1.50391 -2.21522,0 -2.3789,-0.37553 -2.3789,-5.5 0,-5.12447 0.16368,-5.5 2.3789,-5.5 z"
				 style="fill:#3c3b6e;fill-opacity:1"
				 inkscape:connector-curvature="0" />
			  <path
				 id="path4574-9"
				 d="m 164.77104,502.79325 v -10.5 h 2.5 c 2.47146,0 2.5,0.0975 2.5,8.53785 0,8.24469 0.0773,8.53121 2.25,8.34447 4.41996,-0.37986 5.75,0.10998 5.75,2.11768 0,1.79487 -0.66667,2 -6.5,2 h -6.5 z"
				 style="fill:#3c3b6e;fill-opacity:1"
				 inkscape:connector-curvature="0" />
			  <path
				 id="path4572-4"
				 d="m 178.77104,502.79325 v -10.5 h 3 3 v 10.5 10.5 h -3 -3 z"
				 style="fill:#3c3b6e;fill-opacity:1"
				 inkscape:connector-curvature="0" />
			  <path
				 id="path4570-6"
				 d="m 191.77104,504.67975 v -8.6135 l -3,0.44031 c -2.59994,0.38159 -3,0.13002 -3,-1.88651 0,-2.26338 0.24531,-2.3268 9,-2.3268 8.23519,0 9,0.16457 9,1.93664 0,1.45399 -0.80998,2.01474 -3.25,2.25 l -3.25,0.31336 0.0188,8.25 0.0188,8.25 h -2.76876 -2.76876 v -8.6135 z"
				 style="fill:#3c3b6e;fill-opacity:1"
				 inkscape:connector-curvature="0" />
			  <path
				 id="path4568-9"
				 d="m 204.77104,502.79325 v -10.5 h 6.5 c 6.1334,0 6.5,0.13093 6.5,2.3215 0,2.07815 -0.41931,2.29862 -4,2.10317 -3.33755,-0.18218 -4,0.0958 -4,1.6785 0,1.50114 0.73012,1.89683 3.5,1.89683 2.83333,0 3.5,0.38095 3.5,2 0,1.61905 -0.66667,2 -3.5,2 -3.09437,0 -3.5,0.2986 -3.5,2.57647 0,2.3857 0.29503,2.55517 3.98475,2.28876 2.19161,-0.15824 3.99161,0.0324 4,0.42353 0.0789,3.67958 0.0236,3.71124 -6.48475,3.71124 h -6.5 z"
				 style="fill:#3c3b6e;fill-opacity:1"
				 inkscape:connector-curvature="0" />
			  <path
				 id="path4564-6"
				 d="m 121.15916,483.31318 c -6.59539,-2.66484 -8.58854,-12.5475 -3.63812,-18.03889 3.11775,-3.45844 8.2389,-4.72301 12.5,-3.08662 2.16113,0.82993 2.75,1.70378 2.75,4.08083 0,3.30962 -1.06813,3.8525 -3,1.52475 -0.68469,-0.825 -2.51427,-1.5 -4.06574,-1.5 -5.18695,0 -8.01284,7.80893 -4.10552,11.34501 2.32945,2.10812 7.17126,2.21277 7.17126,0.15499 0,-0.93334 -0.94444,-1.5 -2.5,-1.5 -2,0 -2.5,-0.5 -2.5,-2.5 0,-2.33334 0.33333,-2.5 5,-2.5 h 5 v 5.33948 c 0,4.75134 -0.28056,5.46732 -2.54705,6.5 -2.93445,1.33703 -7.021,1.41029 -10.06483,0.18045 z"
				 style="fill:#3c3b6e;fill-opacity:1"
				 inkscape:connector-curvature="0" />
			  <path
				 id="path4562-2"
				 d="m 140.08641,483.28628 c -3.37551,-1.36003 -4.31537,-4.17549 -4.31537,-12.92728 0,-7.90143 0.0501,-8.06574 2.45956,-8.06574 2.39052,0 2.46771,0.23156 2.75,8.25 0.27791,7.89413 0.39586,8.26488 2.73441,8.59497 3.66753,0.51767 5.05603,-2.23847 5.05603,-10.0361 0,-6.14221 0.19582,-6.80887 2,-6.80887 1.84397,0 2,0.66666 2,8.54545 0,7.73962 -0.23146,8.77692 -2.45455,11 -2.54482,2.54482 -6.21706,3.06445 -10.23008,1.44757 z"
				 style="fill:#3c3b6e;fill-opacity:1"
				 inkscape:connector-curvature="0" />
			  <path
				 id="path4560-4"
				 d="m 252.51017,478.55413 -5.73913,-5.73913 v 5.23913 c 0,4.92174 -0.15145,5.23913 -2.5,5.23913 h -2.5 v -11 c 0,-6.05 0.31815,-11 0.707,-11 0.38885,0 3.29262,2.8125 6.45282,6.25 l 5.74582,6.25 0.0472,-5.75 c 0.0447,-5.45409 0.17582,-5.75 2.54716,-5.75 h 2.5 v 11 c 0,6.05 -0.34239,11 -0.76087,11 -0.41848,0 -3.34348,-2.58261 -6.5,-5.73913 z"
				 style="fill:#3c3b6e;fill-opacity:1"
				 inkscape:connector-curvature="0" />
			  <path
				 id="path4558-1"
				 d="m 162.67692,461.29336 c -0.38092,0 -0.92276,0.5625 -1.20508,1.25 -0.28233,0.6875 -2.56571,5.6375 -5.07422,11 l -4.56055,9.75 h 2.9668 c 1.97089,0 2.9668,-0.50368 2.9668,-1.5 0,-1.11265 1.17002,-1.5 4.53125,-1.5 3.10541,0 4.71296,0.47203 5.10742,1.5 0.57538,1.49941 5.35654,2.16726 5.36914,0.75 0.0127,-1.42556 -9.41129,-21.25 -10.10156,-21.25 z m 0.0937,11 c 0.43231,0 1.04474,0.675 1.36133,1.5 0.38957,1.01521 -0.0502,1.5 -1.36133,1.5 -1.31113,0 -1.7509,-0.48479 -1.36133,-1.5 0.31659,-0.825 0.92902,-1.5 1.36133,-1.5 z"
				 style="fill:#3c3b6e;fill-opacity:1"
				 inkscape:connector-curvature="0" />
			  <path
				 id="path4554-5"
				 d="m 174.77067,462.29336 v 10.5 10.5 h 2.5 c 2.26506,0 2.5,-0.39035 2.5,-4.15039 v -4.15039 l 3.00586,4.15039 c 2.40344,3.31785 3.62532,4.15039 6.08789,4.15039 h 3.08008 l -3.07618,-4.18359 c -2.75494,-3.74614 -2.91998,-4.35402 -1.58593,-5.82813 0.81926,-0.90527 1.48828,-3.04675 1.48828,-4.75976 0,-4.14057 -3.09121,-6.22852 -9.22266,-6.22852 z m 5.99023,4.08984 c 0.4431,0.006 1.06254,0.28998 1.90625,0.82422 0.76768,0.48606 1.11913,1.60387 0.78125,2.48438 -0.9937,2.58956 -3.67773,1.93408 -3.67773,-0.89844 0,-1.66039 0.25174,-2.42087 0.99023,-2.41016 z"
				 style="fill:#3c3b6e;fill-opacity:1"
				 inkscape:connector-curvature="0" />
			  <path
				 id="path4550-0"
				 d="m 192.77067,462.29336 v 10.5 10.5 h 5.05078 c 5.56357,0 10.33246,-1.97912 11.91992,-4.94531 1.58438,-2.96044 1.18113,-9.31313 -0.74219,-11.6875 -2.59942,-3.20904 -5.55932,-4.36719 -11.16211,-4.36719 z m 7.42969,5 c 1.33572,0 3.13572,0.70798 4,1.57227 1.87992,1.87992 2.07196,6.78828 0.32031,8.16796 -0.6875,0.5415 -2.4875,1.27932 -4,1.64063 l -2.75,0.65625 v -6.01758 c 0,-5.70645 0.12725,-6.01953 2.42969,-6.01953 z"
				 style="fill:#3c3b6e;fill-opacity:1"
				 inkscape:connector-curvature="0" />
			  <path
				 id="path4546-7"
				 d="m 212.77104,472.79326 v -10.5 h 2.5 2.5 v 10.5 10.5 h -2.5 -2.5 z"
				 style="fill:#3c3b6e;fill-opacity:1"
				 inkscape:connector-curvature="0" />
			  <path
				 id="path4544-4"
				 d="m 229.87418,461.30313 c -0.33165,0.005 -2.92943,4.95502 -5.77343,11 l -5.17188,10.99023 h 2.81445 c 1.57878,0 3.06573,-0.65842 3.38868,-1.5 0.80573,-2.09969 8.241,-2.03506 9.42578,0.082 0.53933,0.96372 1.87179,1.45237 3.41015,1.25 l 2.52539,-0.33203 -5.00781,-10.75 c -2.75468,-5.9125 -5.27967,-10.74523 -5.61133,-10.74023 z m -0.10351,10.99023 c 0.43231,0 1.04474,0.675 1.36133,1.5 0.38957,1.01521 -0.0502,1.5 -1.36133,1.5 -1.31113,0 -1.7509,-0.48479 -1.36133,-1.5 0.31659,-0.825 0.92902,-1.5 1.36133,-1.5 z"
				 style="fill:#3c3b6e;fill-opacity:1"
				 inkscape:connector-curvature="0" />
			  <path
				 id="path4540-4"
				 d="m 56.073412,481.28146 c -5.16837,-2.08137 -7.15396,-13.36456 -3.22978,-18.35334 2.51881,-3.20215 7.04496,-3.51732 9.87467,-0.68761 4.61174,4.61174 4.49215,15.23072 -0.20862,18.52326 -2.45102,1.71677 -3.29102,1.78433 -6.43627,0.51769 z"
				 style="fill:#3c3b6e;fill-opacity:1"
				 inkscape:connector-curvature="0" />
			  <path
				 id="path4538-3"
				 d="M 16.597502,468.89112 C 8.8479605,456.06123 6.2855805,439.48786 10.807571,431.44207 c 4.863301,-8.65308 15.577071,-12.42624 24.590411,-8.66023 1.95948,0.81873 6.81659,4.64373 10.79359,8.5 9.56656,9.27618 10.15267,9.24669 21.09636,-1.0616 14.82491,-13.96416 26.059993,-17.22367 36.198448,-10.50185 8.21384,5.44577 10.90275,15.32506 8.20375,30.14121 -1.51521,8.3177 -2.54868,8.64144 -2.12386,0.66531 0.50139,-9.41373 -2.27,-14.66063 -9.761895,-18.48165 -2.96557,-1.5125 -6.99876,-2.74561 -8.96264,-2.74023 -6.278173,0.0172 -13.594543,4.33295 -21.996273,12.97516 -9.87128,10.15382 -11.41707,10.36163 -19.76741,2.65736 -7.30131,-6.73639 -11.00562,-8.64229 -16.79718,-8.64229 -8.72745,0 -15.57381,5.57558 -17.16046,13.97526 -0.7423,3.9297 1.07043,14.00206 3.29373,18.30144 2.47342,4.78308 1.03234,5.03784 -1.81664,0.32116 z"
				 style="fill:#b22234;fill-opacity:1"
				 inkscape:connector-curvature="0" />
			</g>
		  </g>
		  Sorry, your browser does not support inline SVG.
		</svg>